<svg xmlns="http://www.w3.org/2000/svg" viewBox="0 0 1461.34 145.84"><defs><style>.cls-1{fill:#ed1c24;}</style></defs><g id="Layer_2" data-name="Layer 2"><g id="Layer_1-2" data-name="Layer 1"><path class="cls-1" d="M93,90.17H40.61l-5.7,13q-4.08,9.57-4.07,15.77a16.74,16.74,0,0,0,2.39,9.11,18.1,18.1,0,0,0,7.12,6.31,46.58,46.58,0,0,0,12.47,4v3.15H0v-3.05a36.7,36.7,0,0,0,16.44-11.4q6.87-8.13,14.5-25.34L75.92,0h2.65l49,110c.14.06.25.25.36.56a7.32,7.32,0,0,0,.4,1l.56,1.12,4.48,9.26q3.66,7.44,8.35,11.2a27.79,27.79,0,0,0,11.7,5.29v3.15H88.44v-3.15q8.25-.61,11.81-1.93c4.88-1.84,7.32-5,7.32-9.57q0-3.36-3.25-11Zm-59.94,46.2a32,32,0,0,1-4.89-7.48,17.89,17.89,0,0,1-1.42-7.17c0-1.15,0-2.07.1-2.75a56.82,56.82,0,0,1-6.21,9.82,46.59,46.59,0,0,1-8.24,7.58Zm58-50.47L66.56,30.63,42.44,85.9ZM68.7,26.26l39.18,88.23,1,2.24q3.15,6.83,3.15,10c0,2.91-1.66,6.14-5,9.66h26.87a45.87,45.87,0,0,1-7.94-9.82,151,151,0,0,1-7.83-15.41L74.5,12.93Z"/><path class="cls-1" d="M204.26,68.7v41.82q0,8.76,1.06,13a17.51,17.51,0,0,0,4.13,7.63q5.38,5.61,16.08,7.23v3.15H160.8v-3.15q11-1.83,16-8.45,3.87-4.88,3.87-19.44V33.69c0-6.18-.35-10.65-1-13.44a15.76,15.76,0,0,0-3.77-7.12Q171,7.73,160.8,5.8V2.65c.95.06,1.8.1,2.54.1l9,.51q5.4.3,12.52.3,11.3,0,20.45-.91l14.25-1.23q6.72-.6,13.23-.61a86.08,86.08,0,0,1,21.48,2.45,48.73,48.73,0,0,1,16,7,32.17,32.17,0,0,1,10.08,11.24,31.22,31.22,0,0,1,3.56,14.91q0,13.74-9.41,21.43t-27.84,9a56.53,56.53,0,0,1,19.29,12.27q7.89,7.78,18.78,25.39Q297,124.26,304.09,132a41.12,41.12,0,0,0,15.78,11v2.85a90.63,90.63,0,0,1-18.88-2,53.81,53.81,0,0,1-15.52-6.51,77.18,77.18,0,0,1-18.22-16.18,113.28,113.28,0,0,1-15-23.31L246.9,86.51A61.81,61.81,0,0,0,240.08,75a15,15,0,0,0-7-4.94A37.28,37.28,0,0,0,222,68.7Zm-29.21,67.67h29.72l-4-3a18.25,18.25,0,0,1-4.43-4.07,8.62,8.62,0,0,1-1-4.58c0-1.08,0-1.81-.05-2.19s0-.76,0-1.17V22.8c0-.41,0-.82,0-1.22s.05-1.12.05-2.14a9,9,0,0,1,.87-4.38,14.34,14.34,0,0,1,3.81-3.76l.72-.51,5.7-4.38-3.67.21q-9.26.6-16.69.61-4.57,0-12.52-.31l5.4,3.87a14.66,14.66,0,0,1,4.37,3.92,9.13,9.13,0,0,1,1,4.73c.07,1.15.1,2.27.1,3.36v98.61c0,1.09,0,2.21-.1,3.36a8.91,8.91,0,0,1-.92,4.63,17.59,17.59,0,0,1-4.47,4Zm29.21-71.74h18.21q15.78,0,22.7-3.57a22.24,22.24,0,0,0,9.72-9.82,32.37,32.37,0,0,0,3.51-15.31,31.6,31.6,0,0,0-4.12-16.08,28.46,28.46,0,0,0-11.5-11,35.41,35.41,0,0,0-16.85-3.91q-14,0-18.93,8.75-2.75,5-2.74,15.67Zm103.91,77a82.5,82.5,0,0,1-8.76-5.4,73.18,73.18,0,0,1-7.83-6.82,104.13,104.13,0,0,1-8.3-9.87q-3-4.17-9.92-15.57A175.27,175.27,0,0,0,261.6,86.4a60.16,60.16,0,0,0-10.53-10.78,51.11,51.11,0,0,0-11.7-6.72,54.37,54.37,0,0,1,6.71,8.24q1.42,2.25,5.09,9.47l2.19,4.17c.71,1.36,1.41,2.78,2.09,4.28q10.89,21.27,23.4,32.31A61.08,61.08,0,0,0,308.17,141.67ZM244,65a53.56,53.56,0,0,0,12.46-4.37,35.86,35.86,0,0,0,9.32-6.52,26.26,26.26,0,0,0,5.65-8.34,24.84,24.84,0,0,0,2-9.77,27,27,0,0,0-7.94-19.34q-7.94-8.24-21-10.58a36.77,36.77,0,0,1,9.77,7.53,30.17,30.17,0,0,1,6,9.92,34.37,34.37,0,0,1,2,12q0,11.08-4.38,18.17T244,65Z"/><path class="cls-1" d="M413.8,90.17H361.39l-5.7,13q-4.06,9.57-4.07,15.77a16.83,16.83,0,0,0,2.39,9.11,18.13,18.13,0,0,0,7.13,6.31,46.5,46.5,0,0,0,12.46,4v3.15H320.79v-3.05a36.73,36.73,0,0,0,16.43-11.4q6.87-8.13,14.5-25.34L396.71,0h2.64l49,110c.13.06.25.25.35.56a7.46,7.46,0,0,0,.41,1l.56,1.12,4.48,9.26q3.66,7.44,8.34,11.2a27.77,27.77,0,0,0,11.71,5.29v3.15H409.22v-3.15q8.25-.61,11.81-1.93c4.89-1.84,7.33-5,7.33-9.57q0-3.36-3.26-11Zm-59.94,46.2a32,32,0,0,1-4.88-7.48,17.73,17.73,0,0,1-1.43-7.17c0-1.15,0-2.07.1-2.75a55.64,55.64,0,0,1-6.21,9.82,46.24,46.24,0,0,1-8.24,7.58Zm58-50.47L387.34,30.63,363.22,85.9ZM389.48,26.26l39.18,88.23,1,2.24q3.15,6.83,3.16,10c0,2.91-1.67,6.14-5,9.66h26.87a45.57,45.57,0,0,1-7.94-9.82,152.85,152.85,0,0,1-7.84-15.41L395.28,12.93Z"/><path class="cls-1" d="M597.4,2.65h3.05L642,110.93,669.66,41q3.76-9.46,3.76-15.87Q673.42,10,650,5.8V2.65h54.14V5.7a38.66,38.66,0,0,0-12.06,6.92,48.4,48.4,0,0,0-9.92,11.86,124.26,124.26,0,0,0-8.86,18L632.61,144.92h-2.74l-41-108-39.08,108h-2.64l-44-110.72a107.17,107.17,0,0,0-7.48-15.73,27.34,27.34,0,0,0-7.53-8.39A29.72,29.72,0,0,0,477.82,5.8V2.65h65.95V5.8q-8.76.51-12.52,1.83-7.43,2.44-7.43,9.57,0,4.38,2.54,11.09l31.86,83.15ZM553.54,124.06,517.31,29.72q-3-8-2.95-12.11a10.08,10.08,0,0,1,1.62-5.7,23.43,23.43,0,0,1,5.7-5.4H489.73a43.13,43.13,0,0,1,6.46,6.42,48.43,48.43,0,0,1,5.09,7.93q2.39,4.59,5.44,12.22l41.73,105.43Zm43-107.78L591,31.65,631.7,138.41,637.3,124Zm67.88-9.77q6.4,3.16,9.11,6.67A19.9,19.9,0,0,1,677,22.7,47.66,47.66,0,0,1,690,6.51Z"/><path class="cls-1" d="M800.84,90.17H748.43l-5.7,13q-4.07,9.57-4.07,15.77a16.83,16.83,0,0,0,2.39,9.11,18.13,18.13,0,0,0,7.13,6.31,46.5,46.5,0,0,0,12.46,4v3.15H707.82v-3.05a36.7,36.7,0,0,0,16.44-11.4q6.87-8.13,14.5-25.34L783.75,0h2.64l49,110c.14.06.26.25.36.56a7.46,7.46,0,0,0,.41,1l.56,1.12,4.48,9.26q3.66,7.44,8.34,11.2a27.79,27.79,0,0,0,11.7,5.29v3.15H796.26v-3.15q8.25-.61,11.81-1.93c4.88-1.84,7.33-5,7.33-9.57q0-3.36-3.26-11Zm-59.94,46.2a32,32,0,0,1-4.89-7.48,17.89,17.89,0,0,1-1.42-7.17c0-1.15,0-2.07.1-2.75a55.64,55.64,0,0,1-6.21,9.82,46.24,46.24,0,0,1-8.24,7.58Zm58-50.47L774.38,30.63,750.26,85.9ZM776.52,26.26l39.18,88.23,1,2.24q3.15,6.83,3.15,10c0,2.91-1.66,6.14-5,9.66h26.87a45.57,45.57,0,0,1-7.94-9.82A152.85,152.85,0,0,1,826,111.14L782.32,12.93Z"/><path class="cls-1" d="M1009.27,144.82h-3l-111.75-119,.1,68.29a101.53,101.53,0,0,0,1.33,18.32,36.78,36.78,0,0,0,4.27,11.91q6.93,11.19,22.49,14v3.15H869.44v-3.15q13.74-5.08,18.32-19.23A47.21,47.21,0,0,0,890,108.85a139.55,139.55,0,0,0,.61-14.3V21.68a105,105,0,0,0-12.22-11.2,32.75,32.75,0,0,0-9.77-4.68V2.65h39.49a54.89,54.89,0,0,0,5.29,7.73,22.1,22.1,0,0,1,2.19,2.44l2.09,2.55,1.73,1.93,86,91.9v-70q0-10.68-2.69-17.55A21.92,21.92,0,0,0,994.26,11q-5.75-3.76-15.21-5.19V2.65h48.54V5.8q-10.89,3-14.6,9.77t-3.72,23.61Zm-3.87-6.41v-16l-95.46-102A69.15,69.15,0,0,1,899.46,6.51H878.7a71.46,71.46,0,0,1,15.16,12.83Zm-104.11-2a59,59,0,0,1-6.16-7.78,45.2,45.2,0,0,1-3.91-8.19A43.13,43.13,0,0,1,887,129a41.44,41.44,0,0,1-6.51,7.37ZM993,6.51a29.07,29.07,0,0,1,7.43,5,28.64,28.64,0,0,1,5,7.43,52.68,52.68,0,0,1,3.06-7,35.75,35.75,0,0,1,4.07-5.4Z"/><path class="cls-1" d="M1189.92,114.39,1221.77,41q4.07-9.46,4.07-15.77a15.84,15.84,0,0,0-5.44-12.57Q1215,7.94,1203.86,5.8V2.65h52.82V5.7a38,38,0,0,0-11.7,6.56,47.27,47.27,0,0,0-9.52,11.2,154.16,154.16,0,0,0-9.82,19l-45.19,102.48h-2.24L1129,34.2q-6.72-15.48-11.61-20.92T1103.51,5.8V2.65h66.15V5.8l-2.23.1q-9.78.82-13.74,3.46t-4,8.45a26.69,26.69,0,0,0,2.64,10.48Zm-5,11.4L1143.2,29.72a29.85,29.85,0,0,1-3-11.71,11.54,11.54,0,0,1,1.33-5.54,21.92,21.92,0,0,1,5.08-5.75h-31.14A41.41,41.41,0,0,1,1126,19.13c1.56,2.85,2.89,5.36,4,7.53s2.07,4.31,3,6.42l46.41,105.43ZM1217.19,6.51q6.11,3.76,8.7,7.33a17.17,17.17,0,0,1,3,9,48.63,48.63,0,0,1,5.59-9.26,40,40,0,0,1,7.53-7Z"/><path class="cls-1" d="M1264.11,141.56v-3.15q11-1.83,16-8.45,3.86-4.88,3.86-19.44V33.69c0-6.18-.34-10.65-1-13.44a15.76,15.76,0,0,0-3.77-7.12q-5.09-5.7-15.06-7.33V2.65h63.4V5.8q-11,1.83-16.08,8.45a17.12,17.12,0,0,0-3,7.07,64.56,64.56,0,0,0-.91,12.37v76.83a60,60,0,0,0,1.06,13.08,17,17,0,0,0,3.82,7.48q5.08,5.7,15.06,7.33v3.15Zm14.25-5.19h29.71l-4-3a18.35,18.35,0,0,1-4.42-4.07,8.62,8.62,0,0,1-1-4.58c0-1.08,0-1.81,0-2.19s-.05-.76-.05-1.17V22.8c0-.41,0-.82.05-1.22s0-1.12,0-2.14a8.62,8.62,0,0,1,1-4.58,18.35,18.35,0,0,1,4.42-4.07l5.81-4.28h-33.39l5.81,4.28a18.49,18.49,0,0,1,4.47,4,9,9,0,0,1,.92,4.68c.07,1.15.1,2.27.1,3.36v98.61c0,1.09,0,2.21-.1,3.36a9,9,0,0,1-.92,4.63,17.59,17.59,0,0,1-4.47,4Z"/><path class="cls-1" d="M1382.16,74.6v35.92q0,9.06,1.23,13.18a17,17,0,0,0,4.68,7.48q6.3,5.7,18.21,7.23v3.15h-67.57v-3.15q11-1.83,16-8.45,3.86-4.88,3.86-19.44V33.69c0-6.18-.34-10.65-1-13.44a15.76,15.76,0,0,0-3.77-7.12q-4.89-5.4-15.06-7.33V2.65c1,.06,1.86.1,2.54.1l9,.51q5.38.3,12.52.3,11.3,0,20.45-.91l14.25-1.23q6.91-.6,13.23-.61,23.71,0,37.2,9.62t13.48,26.51a35,35,0,0,1-5.09,18.42,34.45,34.45,0,0,1-13.84,13q-12.32,6.21-37.14,6.21h-23.11ZM1353,136.37h29.71l-4-3a18.35,18.35,0,0,1-4.42-4.07,8.62,8.62,0,0,1-1-4.58c0-1.08,0-1.81,0-2.19a11,11,0,0,1,0-1.17V22.8c0-.41,0-.82,0-1.22s0-1.12,0-2.14a9.11,9.11,0,0,1,.86-4.38A14.58,14.58,0,0,1,1378,11.3l.71-.51,5.7-4.38-3.66.21q-9.27.6-16.69.61-4.58,0-12.52-.31l5.39,3.87a14.73,14.73,0,0,1,4.38,3.92,9.13,9.13,0,0,1,1,4.73c.07,1.15.1,2.27.1,3.36v98.61c0,1.09,0,2.21-.1,3.36a9,9,0,0,1-.92,4.63,17.5,17.5,0,0,1-4.48,4Zm29.2-66.15h16.69q16.19,0,24.63-5.19a25.81,25.81,0,0,0,9.82-11.19,37.82,37.82,0,0,0,3.52-16.59q0-14.76-8.86-23.51T1404.35,5a29.25,29.25,0,0,0-12.16,2.24,15.07,15.07,0,0,0-7.28,6.51q-2.75,4.89-2.75,15.57Zm39.69-.3q14.46-3.87,22-12.47a30.52,30.52,0,0,0,7.58-20.91,28.14,28.14,0,0,0-3.56-14A29.84,29.84,0,0,0,1437.83,12a43.79,43.79,0,0,0-15.67-5.9q18.42,9.66,18.42,30.94,0,11.6-4.68,19.74A34.23,34.23,0,0,1,1421.85,69.92Z"/></g></g></svg>